HIERARCHY
ROOT Hips
{
  OFFSET 36.6405 77.2804 -140.061
  CHANNELS 6 Xposition Yposition Zposition Zrotation Xrotation Yrotation
  JOINT RightUpLeg
  {
    OFFSET -8.9458 -8.66707 0.101652
    CHANNELS 3 Zrotation Xrotation Yrotation
    JOINT RightLeg
    {
      OFFSET 0 -44.4227 1.3727
      CHANNELS 3 Zrotation Xrotation Yrotation
      JOINT RightFoot
      {
        OFFSET 0.253549 -42.0924 -1.46059
        CHANNELS 3 Zrotation Xrotation Yrotation
        JOINT RightToes
        {
          OFFSET 0.04 -4.41509 8.4991
          CHANNELS 3 Zrotation Xrotation Yrotation
          End Site
          {
            OFFSET -0.08 -0.137448 9.77979
          }
        }
      }
    }
  }
  JOINT Spine
  {
    OFFSET 0 11.8905 0
    CHANNELS 3 Zrotation Xrotation Yrotation
    JOINT Spine1
    {
      OFFSET 0 25.6574 0.127663
      CHANNELS 3 Zrotation Xrotation Yrotation
      JOINT HEad
      {
        OFFSET 0 8.73416 0.011341
        CHANNELS 3 Zrotation Xrotation Yrotation
        End Site
        {
          OFFSET -0.29 12.7742 2.51395
        }
      }
      JOINT LeftShoulder1
      {
        OFFSET 8.99 -0.362252 -0.22
        CHANNELS 3 Zrotation Xrotation Yrotation
        JOINT LeftArm
        {
          OFFSET 10.2827 -0.00338 0.322123
          CHANNELS 3 Zrotation Xrotation Yrotation
          JOINT LeftForeArm
          {
            OFFSET 32.7669 0.099144 -1.42434
            CHANNELS 3 Zrotation Xrotation Yrotation
            JOINT LeftHand
            {
              OFFSET 27.5643 0.085362 1.02216
              CHANNELS 3 Zrotation Xrotation Yrotation
              End Site
              {
                OFFSET 16.7443 -0.6 1.50291
              }
            }
          }
        }
      }
      JOINT RightShoulder
      {
        OFFSET -8.99 -0.362252 -0.22
        CHANNELS 3 Zrotation Xrotation Yrotation
        JOINT RightArm
        {
          OFFSET -10.2827 -0.00338 0.322123
          CHANNELS 3 Zrotation Xrotation Yrotation
          JOINT RightForeArm
          {
            OFFSET -32.8971 0.099144 -1.42434
            CHANNELS 3 Zrotation Xrotation Yrotation
            JOINT RightHand
            {
              OFFSET -27.4921 0.085362 1.02216
              CHANNELS 3 Zrotation Xrotation Yrotation
              End Site
              {
                OFFSET -16.6312 -0.6 1.50291
              }
            }
          }
        }
      }
    }
  }
  JOINT LeftUpLeg
  {
    OFFSET 8.9458 -8.66707 0.101652
    CHANNELS 3 Zrotation Xrotation Yrotation
    JOINT LeftLeg
    {
      OFFSET 0 -44.4227 1.3727
      CHANNELS 3 Zrotation Xrotation Yrotation
      JOINT LeftFoot
      {
        OFFSET -0.253549 -42.0924 -1.46059
        CHANNELS 3 Zrotation Xrotation Yrotation
        JOINT LeftToes
        {
          OFFSET -0.04 -4.41509 8.4991
          CHANNELS 3 Zrotation Xrotation Yrotation
          End Site
          {
            OFFSET 0.08 -0.047448 9.77979
          }
        }
      }
    }
  }
}
MOTION
Frames:	19
Frame Time:	0.0166667
43.708 79.8234 -120.534 -2.35552 2.2573 -21.392 -20.2607 -7.20907 3.92758 23.7375 56.5223 -21.1151 42.4523 1.34266 0.150859 0.0462048 0.000533403 0.662642 -5.68418 10.4093 8.41319 -0.00903984 5.1609e-009 2.19183e-007 -5.59881 10.0271 18.0454 7.95139e-016 0 -1.59028e-015 -113.825 -19.832 -92.741 -21.0873 59.5231 -83.4176 36.5961 11.5832 -22.0178 33.33 11.4584 10.4316 79.1774 -15.6123 76.852 30.5017 62.6555 87.1001 -34.9554 19.1642 -1.61363 23.1 -52.5658 15.7568 -8.28619 76.5838 16.3312 8.14294 -0.2276 0.29408 2.44436e-008 1.56001e-007 -4.85536e-009 
43.5239 78.6721 -120.995 -2.329 1.83156 -21.3405 -20.8017 -8.04186 3.68357 25.1505 59.3049 -22.0694 45.6116 1.69701 -0.011766 0.0462048 0.000533403 0.662642 -5.95894 11.082 8.67771 -0.00903984 5.1609e-009 2.19183e-007 -5.45209 9.9223 17.6416 -1.19271e-015 0 -1.59028e-015 -114.09 -19.2165 -92.5484 -20.5937 59.8203 -84.2053 36.6645 11.6738 -21.9041 33.5817 11.0583 10.0418 78.6504 -15.6354 76.2767 29.5569 62.7933 88.2586 -35.003 19.2183 -1.66217 23.6116 -53.6831 16.0192 -8.99031 78.4479 17.1038 8.50724 0.209922 0.212354 2.44436e-008 1.56001e-007 -4.85536e-009 
43.2684 77.5902 -121.851 -2.27641 1.38893 -21.2533 -21.1948 -9.25331 3.30746 26.9402 62.431 -23.5885 48.8195 2.15452 -0.323111 0.0462048 0.000533403 0.662642 -6.25536 11.7325 8.91077 -0.00903984 5.1609e-009 2.19183e-007 -5.33414 9.87914 17.241 1.98785e-015 -3.18055e-015 -1.59028e-015 -114.312 -18.5797 -92.3846 -20.1446 60.0599 -84.8882 36.8037 11.7061 -21.864 33.7832 10.6809 9.68319 78.1352 -15.6385 75.7656 28.5887 62.8377 89.4029 -35.0182 19.2448 -1.83223 24.388 -54.9544 16.5051 -9.51693 80.0136 17.6039 8.93191 1.1871 -0.00928701 2.44436e-008 1.56001e-007 -4.85536e-009 
42.9508 76.6007 -123.036 -2.20016 0.945945 -21.1367 -21.4286 -10.7571 2.82709 29.1515 65.7209 -25.7659 52.0833 2.68815 -0.787602 0.0462048 0.000533403 0.662642 -6.56496 12.3492 9.11411 -0.00903984 5.1609e-009 2.19183e-007 -5.24529 9.88792 16.8482 0 0 -1.59028e-015 -114.492 -17.944 -92.2601 -19.7651 60.2521 -85.4389 36.7851 11.817 -21.7319 33.9355 10.3282 9.36069 77.6393 -15.6123 75.3282 27.654 62.7948 90.4697 -34.9332 19.2646 -1.99626 25.4069 -56.3108 17.2118 -9.73513 81.2291 17.6984 9.44058 2.62956 -0.360362 2.44436e-008 1.56001e-007 -4.85536e-009 
42.5577 75.726 -124.476 -2.09756 0.518705 -20.9934 -21.4894 -12.4535 2.27177 31.8291 68.9836 -28.6937 55.3938 3.27338 -1.41124 0.0462048 0.000533403 0.662642 -6.88398 12.9184 9.29046 -0.00903984 5.1609e-009 2.19183e-007 -5.18787 9.93889 16.4634 -1.98785e-015 3.18055e-015 -4.77083e-015 -114.63 -17.3307 -92.1627 -19.4489 60.4209 -85.879 36.7694 11.9176 -21.5852 34.0518 10.0056 9.10635 77.1236 -15.5761 74.9427 26.7787 62.6547 91.4173 -34.7537 19.2539 -2.29932 26.642 -57.6635 18.136 -9.47474 82.0301 17.2068 10.0488 4.45937 -0.830111 2.44436e-008 1.56001e-007 -4.85536e-009 
42.1271 74.9899 -126.119 -1.97101 0.121085 -20.8283 -21.3769 -14.2529 1.6672 35.0093 72.0462 -32.4281 58.7304 3.88741 -2.19016 0.0462048 0.000533403 0.662642 -7.20324 13.4309 9.44249 -0.00903984 5.1609e-009 2.19183e-007 -5.16121 10.0226 16.0893 7.95139e-016 0 1.59028e-015 -114.73 -16.7511 -92.0971 -19.1946 60.5548 -86.2125 36.7222 12.0474 -21.4277 34.1301 9.70588 8.90502 76.6095 -15.5149 74.6161 26.0115 62.4327 92.197 -34.6471 19.2399 -2.43771 28.0366 -58.9281 19.2427 -8.66364 82.3575 16.0637 10.7695 6.59397 -1.40712 2.44436e-008 1.56001e-007 -4.85536e-009 
41.6681 74.4061 -127.902 -1.82185 -0.233815 -20.6449 -21.1012 -16.0719 1.03619 38.6551 74.7692 -36.9361 62.0702 4.51495 -3.11255 0.0462048 0.000533403 0.662642 -7.51443 13.8783 9.57241 -0.00903984 5.1609e-009 2.19183e-007 -5.16436 10.1289 15.7276 -1.19271e-015 3.18055e-015 -3.18055e-015 -114.8 -16.2139 -92.0683 -18.9976 60.6511 -86.4441 36.6586 12.1735 -21.285 34.1666 9.42851 8.75571 76.1188 -15.4323 74.3556 25.3741 62.1492 92.7853 -34.5035 19.2148 -2.62652 29.5126 -60.0294 20.4749 -7.46494 82.1693 14.4427 11.6107 8.94688 -2.0788 2.44436e-008 1.56001e-007 -4.85536e-009 
41.1773 73.8655 -129.635 -1.64722 -0.530075 -20.4367 -20.7394 -17.7917 0.447698 43.1411 77.1739 -42.4559 65.4401 4.98995 -3.98277 0.0462048 0.000533403 0.662642 -7.81224 14.2507 9.67941 -0.00903984 5.1609e-009 2.19183e-007 -5.19667 10.2443 15.3786 8.82781e-032 3.18055e-015 -1.59028e-015 -114.84 -15.7297 -92.0858 -18.8455 60.7 -86.5672 36.5361 12.3595 -21.1749 34.1112 9.18105 8.70419 75.706 -15.3614 74.1745 24.8508 61.8157 93.1964 -34.3539 19.1816 -2.71897 31.7484 -61.5274 22.3813 -17.915 84.9974 24.4202 12.6732 11.7644 -2.94915 2.44436e-008 1.56001e-007 -4.85536e-009 
40.6756 73.7001 -131.538 -1.4532 -0.760685 -20.2047 -20.1683 -19.4048 -0.192425 46.6763 78.87 -47.4612 68.6785 5.65083 -5.17446 0.0462048 0.000533403 0.662642 -8.08911 14.5485 9.76347 -0.00903984 5.1609e-009 2.19183e-007 -5.2561 10.3593 15.0467 -1.19271e-015 0 -0 -114.855 -15.2965 -92.1549 -18.7687 60.6959 -86.5652 36.4567 12.3994 -21.1139 33.982 8.95077 8.68784 75.3726 -15.2516 74.0725 24.4035 61.4624 93.4846 -34.2152 19.2137 -2.85236 32.9667 -61.9278 23.5083 -13.9084 82.3909 19.9106 13.7143 14.1525 -3.73863 2.44436e-008 1.56001e-007 -4.85536e-009 
40.1716 73.6754 -133.393 -1.24314 -0.921925 -19.9505 -19.518 -20.82 -0.796678 49.3664 80.0937 -51.8256 71.8516 6.26653 -6.40028 0.0462048 0.000533403 0.662642 -8.34239 14.7729 9.82546 -0.00903984 5.1609e-009 2.19183e-007 -5.34011 10.4655 14.7332 -3.97569e-016 3.18055e-015 -0 -114.847 -14.9147 -92.2731 -18.7927 60.6386 -86.4273 36.3308 12.4635 -21.0697 33.7858 8.73925 8.69837 75.1235 -15.1074 74.0407 23.9811 61.1061 93.714 -34.0607 19.2592 -2.98524 33.9131 -62.0573 24.4495 -11.9511 79.6301 17.409 14.8538 16.5422 -4.57071 2.44436e-008 1.56001e-007 -4.85536e-009 
39.6439 73.848 -135.114 -1.02077 -1.01014 -19.6705 -18.8127 -21.9578 -1.34421 50.4146 80.8403 -54.6964 74.9436 6.82188 -7.60624 0.0462048 0.000533403 0.662642 -8.57185 14.9257 9.87025 -0.00903984 5.1609e-009 2.19183e-007 -5.4465 10.5536 14.4351 1.59028e-015 -6.36111e-015 1.59028e-015 -114.819 -14.5979 -92.4551 -18.9759 60.5069 -86.0931 36.1824 12.4797 -21.0804 33.4794 8.56835 8.79187 75.0025 -14.9759 74.0872 23.5345 60.755 93.9322 -33.8022 19.3213 -3.21127 34.5431 -61.9489 25.1615 -10.8632 76.8553 15.7718 16.083 18.8612 -5.42677 2.44436e-008 1.56001e-007 -4.85536e-009 
39.1315 74.1194 -136.677 -0.797189 -1.02994 -19.367 -18.0908 -22.7802 -1.82518 49.4707 81.1506 -55.6476 77.957 7.30788 -8.74007 0.0462048 0.000533403 0.662642 -8.77059 15.0159 9.90022 -0.00903984 5.1609e-009 2.19183e-007 -5.57305 10.6212 14.1538 -0 0 1.59028e-015 -114.78 -14.3412 -92.6809 -19.2834 60.3372 -85.6173 36.0241 12.4702 -21.1805 33.1807 8.40855 8.88721 74.8966 -14.8137 74.1732 23.1137 60.4342 94.1067 -33.6533 19.3423 -3.36744 34.8744 -61.6742 25.6552 -10.1941 74.2027 14.5824 17.3881 21.0371 -6.28399 2.44436e-008 1.56001e-007 -4.85536e-009 
38.6394 74.4735 -138.03 -0.576006 -0.987685 -19.0446 -17.3931 -23.2689 -2.23246 46.7805 81.0628 -54.8482 80.917 7.7167 -9.76166 0.0462048 0.000533403 0.662642 -8.93922 15.0509 9.91935 -0.00903984 5.1609e-009 2.19183e-007 -5.71653 10.6665 13.8895 -7.95139e-016 3.18055e-015 1.59028e-015 -114.738 -14.1423 -92.9282 -19.6713 60.151 -85.0548 35.8722 12.4458 -21.3091 32.915 8.26166 8.97186 74.7826 -14.6379 74.2854 22.7606 60.1547 94.2088 -33.4827 19.3451 -3.53308 34.9522 -61.3125 25.9778 -9.73177 71.8125 13.6646 18.7596 22.9941 -7.11448 2.44436e-008 1.56001e-007 -4.85536e-009 
38.1466 74.9463 -139.107 -0.339426 -0.850915 -18.7006 -16.7526 -23.4363 -2.57178 42.9411 80.5753 -52.827 83.851 8.03757 -10.6264 0.0462048 0.000533403 0.662642 -9.08544 15.0004 9.92703 -0.00903984 5.1609e-009 2.19183e-007 -5.87466 10.6834 13.6413 1.19271e-015 6.36111e-015 1.59028e-015 -114.695 -14.0162 -93.1976 -20.1177 59.9424 -84.4139 35.7035 12.4941 -21.4781 32.6402 8.16532 9.0797 74.6841 -14.4914 74.4482 22.5355 59.9214 94.1793 -33.3505 19.2404 -3.68411 34.8596 -60.9668 26.2471 -9.32292 69.8368 12.9366 20.2336 24.6506 -7.88748 2.44436e-008 1.56001e-007 -4.85536e-009 
37.6933 75.4275 -139.887 -0.0925461 -0.637155 -18.3374 -16.1997 -23.2786 -2.84217 38.7821 79.7321 -50.3406 86.8064 8.26521 -11.3065 0.0462048 0.000533403 0.662642 -9.21197 14.8849 9.92526 -0.00903984 5.1609e-009 2.19183e-007 -6.04628 10.6724 13.4114 3.97569e-016 0 -0 -114.651 -13.949 -93.4613 -20.5744 59.7374 -83.7699 35.5702 12.4135 -21.6911 32.3752 8.08432 9.1587 74.5713 -14.3371 74.6126 22.3892 59.7434 94.0829 -33.3027 19.2916 -3.83407 34.6569 -60.7085 26.5267 -8.91425 68.4105 12.3666 21.7902 25.9217 -8.56203 2.44436e-008 1.56001e-007 -4.85536e-009 
37.2875 75.9602 -140.238 0.171103 -0.359454 -17.9525 -15.8142 -23.1538 -2.99121 37.0984 78.5684 -49.4145 86.2609 8.36818 -11.3755 0.0462048 0.000533403 0.662642 -9.32782 14.7185 9.91037 -0.00903984 5.1609e-009 2.19183e-007 -6.23084 10.6331 13.198 -7.95139e-016 3.18055e-015 1.59028e-015 -114.61 -13.9278 -93.6971 -21.0084 59.5505 -83.1719 35.4417 12.3783 -21.8993 32.1227 8.02334 9.20651 74.4341 -14.1861 74.7602 22.2601 59.6142 93.9857 -33.3028 19.3025 -3.99366 33.5123 -60.6177 26.441 -6.44977 67.5317 11.4785 25.14 26.597 -9.23087 2.44436e-008 1.56001e-007 -4.85536e-009 
36.9233 76.7066 -140.31 0.469046 -0.0224343 -17.5223 -15.6007 -22.7273 -3.13635 34.2011 77.1081 -47.1533 85.9481 8.51418 -11.4379 0.0462048 0.000533403 0.662642 -9.44269 14.5182 9.86629 -0.00903984 5.1609e-009 2.19183e-007 -6.43107 10.5571 12.9909 -1.98785e-015 6.36111e-015 -3.18055e-015 -114.566 -13.9443 -93.9044 -21.4194 59.3784 -82.6093 35.3338 12.3042 -22.109 31.8466 8.0408 9.27133 74.2972 -14.0849 74.9258 22.0785 59.5227 93.9282 -33.2839 19.3829 -4.23924 29.9504 -58.8442 24.6111 -3.14595 60.6331 11.2359 29.5938 26.7591 -9.68358 2.44436e-008 1.56001e-007 -4.85536e-009 
36.6405 77.2804 -140.061 0.803153 0.366956 -17.0379 -15.5897 -22.1753 -3.23234 31.9873 75.7632 -45.203 85.8716 8.46239 -11.1745 0.0462048 0.000533403 0.662642 -9.55413 14.2959 9.78108 -0.00903984 5.1609e-009 2.19183e-007 -6.6474 10.4464 12.7862 -7.95139e-016 -3.18055e-015 -0 -114.519 -13.969 -94.0707 -21.7927 59.2351 -82.1027 35.2732 12.1566 -22.3787 31.5955 8.05321 9.32943 74.1228 -14.007 75.0323 21.8508 59.4681 93.9191 -33.3602 19.4096 -4.32779 27.7024 -58.1963 24.1432 -2.9813 57.5055 15.3673 35.3276 26.8397 -10.392 2.44436e-008 1.56001e-007 -4.85536e-009 
36.3658 77.8749 -139.772 1.17093 0.804516 -16.4967 -15.6474 -21.6437 -3.35533 29.992 74.3434 -43.4077 85.8228 8.40363 -10.9027 0.0462048 0.000533403 0.662642 -9.65886 14.0589 9.65082 -0.00903984 5.1609e-009 2.19183e-007 -6.87731 10.3045 12.5767 -7.95139e-016 -6.36111e-015 -7.95139e-016 -114.469 -13.9786 -94.1873 -22.1215 59.1222 -81.6545 35.2316 12.0001 -22.637 31.3723 8.05213 9.3985 73.9198 -13.9722 75.0735 21.6029 59.4404 93.9407 -33.4209 19.4168 -4.43636 26.1987 -57.4903 24.1894 -2.1619 54.7124 17.7492 40.0862 27.1014 -11.1301 2.44436e-008 1.56001e-007 -4.85536e-009 
